<svg height="1582" width="720" xmlns="http://www.w3.org/2000/svg">
<rect height="1582" fill="#555" width="720"></rect>
<text fill="#7f7" font-family="Courier New" font-size="12" xml:space="preserve">
<tspan x="10" y="26">13 megabytes installed</tspan>
<tspan x="10" y="42"></tspan>
<tspan x="10" y="58">node_modules</tspan>
<tspan x="10" y="74">└─┬ hyperlog@4.12.1 </tspan>
<tspan x="10" y="90">  ├─┬ after-all@2.0.2 </tspan>
<tspan x="10" y="106">  │ └─┬ once@1.4.0 </tspan>
<tspan x="10" y="122">  │   └── wrappy@1.0.2 </tspan>
<tspan x="10" y="138">  ├── bitfield@1.1.2 </tspan>
<tspan x="10" y="154">  ├─┬ brfs@1.4.3 </tspan>
<tspan x="10" y="170">  │ ├─┬ quote-stream@1.0.2 </tspan>
<tspan x="10" y="186">  │ │ ├── buffer-equal@0.0.1 </tspan>
<tspan x="10" y="202">  │ │ └── minimist@1.2.0 </tspan>
<tspan x="10" y="218">  │ ├─┬ resolve@1.3.3 </tspan>
<tspan x="10" y="234">  │ │ └── path-parse@1.0.5 </tspan>
<tspan x="10" y="250">  │ └─┬ static-module@1.3.1 </tspan>
<tspan x="10" y="266">  │   ├─┬ concat-stream@1.4.10 </tspan>
<tspan x="10" y="282">  │   │ ├─┬ readable-stream@1.1.14 </tspan>
<tspan x="10" y="298">  │   │ │ ├── isarray@0.0.1 </tspan>
<tspan x="10" y="314">  │   │ │ └── string_decoder@0.10.31 </tspan>
<tspan x="10" y="330">  │   │ └── typedarray@0.0.6 </tspan>
<tspan x="10" y="346">  │   ├─┬ duplexer2@0.0.2 </tspan>
<tspan x="10" y="362">  │   │ └─┬ readable-stream@1.1.14 </tspan>
<tspan x="10" y="378">  │   │   ├── isarray@0.0.1 </tspan>
<tspan x="10" y="394">  │   │   └── string_decoder@0.10.31 </tspan>
<tspan x="10" y="410">  │   ├─┬ escodegen@1.3.3 </tspan>
<tspan x="10" y="426">  │   │ ├── esprima@1.1.1 </tspan>
<tspan x="10" y="442">  │   │ ├── estraverse@1.5.1 </tspan>
<tspan x="10" y="458">  │   │ ├── esutils@1.0.0 </tspan>
<tspan x="10" y="474">  │   │ └─┬ source-map@0.1.43 </tspan>
<tspan x="10" y="490">  │   │   └── amdefine@1.0.1 </tspan>
<tspan x="10" y="506">  │   ├─┬ falafel@1.2.0 </tspan>
<tspan x="10" y="522">  │   │ ├── acorn@1.2.2 </tspan>
<tspan x="10" y="538">  │   │ ├── foreach@2.0.5 </tspan>
<tspan x="10" y="554">  │   │ ├── isarray@0.0.1 </tspan>
<tspan x="10" y="570">  │   │ └── object-keys@1.0.11 </tspan>
<tspan x="10" y="586">  │   ├─┬ has@1.0.1 </tspan>
<tspan x="10" y="602">  │   │ └── function-bind@1.1.0 </tspan>
<tspan x="10" y="618">  │   ├── object-inspect@0.4.0 </tspan>
<tspan x="10" y="634">  │   ├─┬ quote-stream@0.0.0 </tspan>
<tspan x="10" y="650">  │   │ └── minimist@0.0.8 </tspan>
<tspan x="10" y="666">  │   ├─┬ readable-stream@1.0.34 </tspan>
<tspan x="10" y="682">  │   │ ├── isarray@0.0.1 </tspan>
<tspan x="10" y="698">  │   │ └── string_decoder@0.10.31 </tspan>
<tspan x="10" y="714">  │   ├── shallow-copy@0.0.1 </tspan>
<tspan x="10" y="730">  │   ├─┬ static-eval@0.2.4 </tspan>
<tspan x="10" y="746">  │   │ └─┬ escodegen@0.0.28 </tspan>
<tspan x="10" y="762">  │   │   ├── esprima@1.0.4 </tspan>
<tspan x="10" y="778">  │   │   └── estraverse@1.3.2 </tspan>
<tspan x="10" y="794">  │   └─┬ through2@0.4.2 </tspan>
<tspan x="10" y="810">  │     └─┬ xtend@2.1.2 </tspan>
<tspan x="10" y="826">  │       └── object-keys@0.4.0 </tspan>
<tspan x="10" y="842">  ├─┬ cuid@1.3.8 </tspan>
<tspan x="10" y="858">  │ ├── browser-fingerprint@0.0.1 </tspan>
<tspan x="10" y="874">  │ ├── core-js@1.2.7 </tspan>
<tspan x="10" y="890">  │ └── node-fingerprint@0.0.2 </tspan>
<tspan x="10" y="906">  ├─┬ debug@2.6.4 </tspan>
<tspan x="10" y="922">  │ └── ms@0.7.3 </tspan>
<tspan x="10" y="938">  ├── defined@1.0.0 </tspan>
<tspan x="10" y="954">  ├─┬ duplexify@3.5.0 </tspan>
<tspan x="10" y="970">  │ ├─┬ end-of-stream@1.0.0 </tspan>
<tspan x="10" y="986">  │ │ └── once@1.3.3 </tspan>
<tspan x="10" y="1002">  │ ├── inherits@2.0.3 </tspan>
<tspan x="10" y="1018">  │ ├─┬ readable-stream@2.2.9 </tspan>
<tspan x="10" y="1034">  │ │ ├── buffer-shims@1.0.0 </tspan>
<tspan x="10" y="1050">  │ │ ├── core-util-is@1.0.2 </tspan>
<tspan x="10" y="1066">  │ │ ├── isarray@1.0.0 </tspan>
<tspan x="10" y="1082">  │ │ ├── process-nextick-args@1.0.7 </tspan>
<tspan x="10" y="1098">  │ │ ├── string_decoder@1.0.0 </tspan>
<tspan x="10" y="1114">  │ │ └── util-deprecate@1.0.2 </tspan>
<tspan x="10" y="1130">  │ └── stream-shift@1.0.0 </tspan>
<tspan x="10" y="1146">  ├── framed-hash@1.1.0 </tspan>
<tspan x="10" y="1162">  ├── from2@2.3.0 </tspan>
<tspan x="10" y="1178">  ├─┬ length-prefixed-stream@1.5.1 </tspan>
<tspan x="10" y="1194">  │ └── varint@5.0.0 </tspan>
<tspan x="10" y="1210">  ├── level-enumerate@1.0.1 </tspan>
<tspan x="10" y="1226">  ├─┬ level-logs@1.1.2 </tspan>
<tspan x="10" y="1242">  │ ├─┬ from2@1.3.0 </tspan>
<tspan x="10" y="1258">  │ │ └─┬ readable-stream@1.1.14 </tspan>
<tspan x="10" y="1274">  │ │   ├── isarray@0.0.1 </tspan>
<tspan x="10" y="1290">  │ │   └── string_decoder@0.10.31 </tspan>
<tspan x="10" y="1306">  │ └─┬ through2@0.6.5 </tspan>
<tspan x="10" y="1322">  │   └── readable-stream@1.0.34 </tspan>
<tspan x="10" y="1338">  ├── lexicographic-integer@1.1.0 </tspan>
<tspan x="10" y="1354">  ├── mutexify@1.1.0 </tspan>
<tspan x="10" y="1370">  ├─┬ protocol-buffers@3.2.1 </tspan>
<tspan x="10" y="1386">  │ ├── generate-function@2.0.0 </tspan>
<tspan x="10" y="1402">  │ ├─┬ generate-object-property@1.2.0 </tspan>
<tspan x="10" y="1418">  │ │ └── is-property@1.0.2 </tspan>
<tspan x="10" y="1434">  │ ├── protocol-buffers-schema@3.3.0 </tspan>
<tspan x="10" y="1450">  │ └── signed-varint@2.0.1 </tspan>
<tspan x="10" y="1466">  ├─┬ pump@1.0.2 </tspan>
<tspan x="10" y="1482">  │ └── end-of-stream@1.4.0 </tspan>
<tspan x="10" y="1498">  ├── run-parallel@1.1.6 </tspan>
<tspan x="10" y="1514">  ├── run-waterfall@1.1.3 </tspan>
<tspan x="10" y="1530">  ├── stream-collector@1.0.1 </tspan>
<tspan x="10" y="1546">  └─┬ through2@2.0.3 </tspan>
<tspan x="10" y="1562">    └── xtend@4.0.1</tspan>
</text>
</svg>
